<svg xmlns="http://www.w3.org/2000/svg" xmlns:xlink="http://www.w3.org/1999/xlink" width="1080" zoomAndPan="magnify" viewBox="0 0 810 809.999993" height="1080" preserveAspectRatio="xMidYMid meet" version="1.2"><defs><clipPath id="1e398d2ec8"><path d="M 115 171 L 690.886719 171 L 690.886719 802.5 L 115 802.5 Z M 115 171 "/></clipPath></defs><g id="612eb51964"><path style=" stroke:none;fill-rule:nonzero;fill:#ffa000;fill-opacity:1;" d="M 494.042969 293.035156 L 414.160156 367.304688 L 340.035156 217.894531 L 378.394531 131.964844 C 388.371094 114.519531 403.933594 114.71875 413.660156 131.964844 Z M 494.042969 293.035156 "/><path style=" stroke:none;fill-rule:nonzero;fill:#f57f17;fill-opacity:1;" d="M 340.035156 217.894531 L 414.160156 367.304688 L 115.621094 644.816406 Z M 340.035156 217.894531 "/><g clip-rule="nonzero" clip-path="url(#1e398d2ec8)"><path style=" stroke:none;fill-rule:nonzero;fill:#ffca28;fill-opacity:1;" d="M 581.410156 179.515625 C 595.675781 165.808594 610.441406 170.492188 614.207031 189.910156 L 691.921875 641.128906 L 434.335938 795.644531 C 425.355469 800.628906 401.414062 802.773438 401.414062 802.773438 C 401.414062 802.773438 379.617188 800.183594 371.3125 795.296875 L 115.621094 644.816406 Z M 581.410156 179.515625 "/></g><path style=" stroke:none;fill-rule:nonzero;fill:#ffa000;fill-opacity:1;" d="M 340.035156 217.894531 L 115.648438 644.816406 L 215.582031 20.886719 C 219.273438 1.445312 230.347656 -0.421875 240.222656 16.722656 Z M 340.035156 217.894531 "/></g></svg>