<svg xmlns="http://www.w3.org/2000/svg" xmlns:xlink="http://www.w3.org/1999/xlink" width="1080" zoomAndPan="magnify" viewBox="0 0 810 809.999993" height="1080" preserveAspectRatio="xMidYMid meet" version="1.2"><g id="89379c7bc1"><path style=" stroke:none;fill-rule:nonzero;fill:#7ed957;fill-opacity:1;" d="M 459.140625 114.339844 C 427.730469 77.074219 400.683594 39.226562 395.160156 31.367188 C 395.027344 31.226562 394.871094 31.117188 394.695312 31.042969 C 394.519531 30.96875 394.332031 30.929688 394.140625 30.929688 C 393.949219 30.929688 393.761719 30.96875 393.585938 31.042969 C 393.410156 31.117188 393.253906 31.226562 393.121094 31.367188 C 387.597656 39.226562 360.550781 77.074219 329.140625 114.339844 C 59.546875 458.175781 371.601562 690.214844 371.601562 690.214844 L 374.21875 691.964844 C 376.542969 727.769531 382.363281 779.308594 382.363281 779.308594 L 405.628906 779.308594 C 405.628906 779.308594 411.441406 728.0625 413.769531 691.964844 L 416.390625 689.925781 C 416.679688 690.222656 728.738281 458.179688 459.140625 114.339844 Z M 393.996094 684.976562 C 393.996094 684.976562 380.035156 673.042969 376.253906 666.925781 L 376.253906 666.339844 L 393.121094 291.9375 C 393.121094 290.773438 394.867188 290.773438 394.867188 291.9375 L 411.734375 666.339844 L 411.734375 666.925781 C 407.953125 673.042969 393.996094 684.976562 393.996094 684.976562 Z M 393.996094 684.976562 "/></g></svg>