<svg xmlns="http://www.w3.org/2000/svg" xmlns:xlink="http://www.w3.org/1999/xlink" width="1080" zoomAndPan="magnify" viewBox="0 0 810 809.999993" height="1080" preserveAspectRatio="xMidYMid meet" version="1.2"><defs><clipPath id="6f4ebdecfb"><path d="M 22 296.628906 L 619 296.628906 L 619 510 L 22 510 Z M 22 296.628906 "/></clipPath></defs><g id="36fd7e99da"><path style=" stroke:none;fill-rule:nonzero;fill:#83cd29;fill-opacity:1;" d="M 718.042969 372.289062 C 716.199219 372.289062 714.410156 372.667969 712.824219 373.566406 L 662.660156 402.472656 C 659.414062 404.339844 657.4375 407.867188 657.4375 411.613281 L 657.4375 469.328125 C 657.4375 473.078125 659.414062 476.597656 662.660156 478.46875 L 675.757812 486.003906 C 682.125 489.136719 684.472656 489.085938 687.371094 489.085938 C 696.792969 489.085938 702.171875 483.378906 702.171875 473.460938 L 702.171875 416.515625 C 702.171875 415.710938 701.472656 415.136719 700.683594 415.136719 L 694.398438 415.136719 C 693.59375 415.136719 692.90625 415.726562 692.90625 416.515625 L 692.90625 473.484375 C 692.90625 477.882812 688.316406 482.304688 680.871094 478.585938 L 667.253906 470.617188 C 666.773438 470.355469 666.402344 469.878906 666.402344 469.339844 L 666.402344 411.625 C 666.402344 411.078125 666.769531 410.523438 667.253906 410.246094 L 717.3125 381.441406 C 717.78125 381.171875 718.339844 381.171875 718.804688 381.441406 L 768.863281 410.246094 C 769.339844 410.53125 769.714844 411.0625 769.714844 411.625 L 769.714844 469.339844 C 769.714844 469.894531 769.4375 470.457031 768.96875 470.722656 L 718.804688 499.527344 C 718.359375 499.785156 717.769531 499.785156 717.3125 499.527344 L 704.425781 491.875 C 704.042969 491.652344 703.519531 491.667969 703.148438 491.875 C 699.59375 493.886719 698.921875 494.121094 695.589844 495.277344 C 694.765625 495.5625 693.515625 496.007812 696.015625 497.40625 L 712.84375 507.300781 C 714.445312 508.226562 716.230469 508.683594 718.0625 508.683594 C 719.917969 508.683594 721.679688 508.238281 723.28125 507.300781 L 773.445312 478.496094 C 776.691406 476.609375 778.664062 473.105469 778.664062 469.355469 L 778.664062 411.640625 C 778.664062 407.890625 776.691406 404.375 773.445312 402.5 L 723.28125 373.589844 C 721.710938 372.695312 719.90625 372.316406 718.0625 372.316406 Z M 731.464844 413.53125 C 717.179688 413.53125 708.671875 419.597656 708.671875 429.6875 C 708.671875 440.617188 717.113281 443.636719 730.824219 444.988281 C 747.226562 446.59375 748.503906 448.996094 748.503906 452.21875 C 748.503906 457.804688 744.042969 460.1875 733.488281 460.1875 C 720.230469 460.1875 717.316406 456.886719 716.339844 450.292969 C 716.226562 449.585938 715.679688 449.015625 714.957031 449.015625 L 708.441406 449.015625 C 708.246094 449.019531 708.058594 449.0625 707.878906 449.136719 C 707.695312 449.214844 707.539062 449.324219 707.398438 449.460938 C 707.261719 449.601562 707.152344 449.761719 707.074219 449.941406 C 706.996094 450.121094 706.957031 450.308594 706.953125 450.503906 C 706.953125 458.929688 711.542969 468.890625 733.472656 468.890625 C 749.347656 468.890625 758.503906 462.6875 758.503906 451.777344 C 758.503906 440.996094 751.105469 438.082031 735.710938 436.046875 C 720.167969 433.976562 718.667969 432.988281 718.667969 429.351562 C 718.667969 426.347656 719.925781 422.332031 731.449219 422.332031 C 741.742188 422.332031 745.546875 424.550781 747.105469 431.472656 C 747.242188 432.125 747.816406 432.65625 748.492188 432.65625 L 755.003906 432.65625 C 755.402344 432.65625 755.792969 432.410156 756.070312 432.125 C 756.34375 431.820312 756.535156 431.472656 756.496094 431.0625 C 755.488281 419.132812 747.519531 413.523438 731.46875 413.523438 Z M 731.464844 413.53125 "/><g clip-rule="nonzero" clip-path="url(#6f4ebdecfb)"><path style=" stroke:none;fill-rule:nonzero;fill:#404137;fill-opacity:1;" d="M 423.121094 296.632812 C 422.554688 296.632812 422.019531 296.773438 421.527344 297.054688 C 421.035156 297.34375 420.644531 297.734375 420.359375 298.226562 C 420.074219 298.71875 419.929688 299.25 419.929688 299.820312 L 419.929688 381.128906 C 419.929688 381.925781 419.554688 382.640625 418.863281 383.042969 C 418.515625 383.242188 418.144531 383.34375 417.746094 383.34375 C 417.34375 383.34375 416.972656 383.242188 416.625 383.042969 L 403.3125 375.390625 C 402.828125 375.109375 402.3125 374.898438 401.769531 374.753906 C 401.230469 374.605469 400.679688 374.535156 400.117188 374.535156 C 399.554688 374.535156 399.003906 374.605469 398.460938 374.753906 C 397.921875 374.898438 397.40625 375.109375 396.921875 375.390625 L 343.777344 406 C 341.792969 407.144531 340.582031 409.34375 340.582031 411.632812 L 340.582031 472.851562 C 340.582031 473.414062 340.652344 473.964844 340.796875 474.503906 C 340.941406 475.046875 341.15625 475.558594 341.4375 476.042969 C 341.714844 476.53125 342.054688 476.96875 342.453125 477.367188 C 342.847656 477.761719 343.292969 478.101562 343.777344 478.378906 L 396.925781 508.988281 C 397.410156 509.269531 397.921875 509.484375 398.464844 509.628906 C 399.007812 509.777344 399.558594 509.847656 400.121094 509.847656 C 400.679688 509.847656 401.234375 509.777344 401.773438 509.628906 C 402.316406 509.484375 402.828125 509.269531 403.316406 508.988281 L 456.460938 478.378906 C 456.949219 478.101562 457.390625 477.761719 457.789062 477.367188 C 458.183594 476.96875 458.523438 476.53125 458.804688 476.042969 C 459.085938 475.558594 459.296875 475.046875 459.441406 474.503906 C 459.585938 473.964844 459.660156 473.414062 459.65625 472.851562 L 459.65625 320.226562 C 459.65625 317.90625 458.386719 315.726562 456.355469 314.59375 L 424.722656 296.941406 C 424.226562 296.667969 423.675781 296.617188 423.125 296.625 Z M 81.234375 373.050781 C 80.21875 373.09375 79.265625 373.269531 78.355469 373.796875 L 25.210938 404.40625 C 24.726562 404.683594 24.28125 405.019531 23.886719 405.417969 C 23.488281 405.8125 23.148438 406.253906 22.867188 406.738281 C 22.589844 407.222656 22.375 407.738281 22.230469 408.277344 C 22.085938 408.820312 22.015625 409.371094 22.015625 409.929688 L 22.125 492.09375 C 22.125 493.234375 22.71875 494.296875 23.722656 494.855469 C 24.710938 495.445312 25.933594 495.445312 26.917969 494.855469 L 58.445312 476.785156 C 60.441406 475.605469 61.746094 473.542969 61.746094 471.261719 L 61.746094 432.886719 C 61.746094 430.597656 62.953125 428.5 64.941406 427.363281 L 78.363281 419.605469 C 79.351562 419.03125 80.414062 418.746094 81.558594 418.753906 C 82.699219 418.746094 83.765625 419.03125 84.753906 419.605469 L 98.167969 427.359375 C 100.15625 428.496094 101.363281 430.59375 101.363281 432.882812 L 101.363281 471.25 C 101.363281 473.535156 102.695312 475.609375 104.664062 476.777344 L 136.1875 494.847656 C 137.179688 495.4375 138.402344 495.4375 139.382812 494.847656 C 140.359375 494.285156 140.984375 493.226562 140.984375 492.082031 L 141.089844 409.925781 C 141.09375 409.363281 141.023438 408.8125 140.878906 408.269531 C 140.734375 407.730469 140.523438 407.214844 140.242188 406.730469 C 139.960938 406.246094 139.621094 405.804688 139.222656 405.410156 C 138.824219 405.011719 138.382812 404.675781 137.894531 404.398438 L 84.75 373.800781 C 83.851562 373.273438 82.894531 373.097656 81.871094 373.054688 L 81.234375 373.054688 Z M 558.808594 373.796875 C 557.664062 373.792969 556.601562 374.074219 555.609375 374.644531 L 502.464844 405.257812 C 500.480469 406.402344 499.265625 408.496094 499.265625 410.78125 L 499.265625 472.003906 C 499.265625 474.304688 500.566406 476.390625 502.566406 477.527344 L 555.289062 507.515625 C 557.234375 508.621094 559.609375 508.707031 561.570312 507.617188 L 593.523438 489.867188 C 594.539062 489.304688 595.222656 488.257812 595.226562 487.105469 C 595.230469 485.953125 594.628906 484.914062 593.628906 484.34375 L 540.160156 453.730469 C 539.160156 453.160156 538.457031 452.007812 538.457031 450.863281 L 538.457031 431.71875 C 538.457031 430.574219 539.167969 429.523438 540.160156 428.953125 L 556.773438 419.386719 C 557.761719 418.816406 558.976562 418.816406 559.972656 419.386719 L 576.625 428.953125 C 577.121094 429.238281 577.511719 429.628906 577.796875 430.121094 C 578.082031 430.613281 578.222656 431.148438 578.222656 431.71875 L 578.222656 446.808594 C 578.222656 447.378906 578.363281 447.910156 578.648438 448.40625 C 578.933594 448.898438 579.324219 449.289062 579.820312 449.570312 C 580.816406 450.144531 582.023438 450.148438 583.015625 449.570312 L 614.859375 431.078125 C 616.835938 429.929688 618.054688 427.832031 618.054688 425.550781 L 618.054688 410.78125 C 618.054688 410.21875 617.984375 409.667969 617.839844 409.128906 C 617.691406 408.585938 617.480469 408.074219 617.199219 407.589844 C 616.917969 407.105469 616.582031 406.664062 616.183594 406.269531 C 615.789062 405.871094 615.347656 405.535156 614.859375 405.253906 L 562.03125 374.644531 C 561.042969 374.070312 559.980469 373.789062 558.835938 373.792969 Z M 399.898438 419.5 C 400.199219 419.5 400.484375 419.570312 400.75 419.710938 L 418.960938 430.234375 C 419.457031 430.519531 419.8125 431.046875 419.8125 431.613281 L 419.8125 452.660156 C 419.8125 453.230469 419.460938 453.757812 418.960938 454.039062 L 400.75 464.5625 C 400.253906 464.84375 399.648438 464.84375 399.152344 464.5625 L 380.9375 454.039062 C 380.441406 453.753906 380.085938 453.226562 380.085938 452.660156 L 380.085938 431.621094 C 380.085938 431.050781 380.445312 430.527344 380.9375 430.238281 L 399.152344 419.71875 C 399.398438 419.574219 399.617188 419.507812 399.898438 419.507812 Z M 399.898438 419.5 "/></g><path style=" stroke:none;fill-rule:nonzero;fill:#83cd29;fill-opacity:1;" d="M 240.882812 373.472656 C 239.742188 373.472656 238.675781 373.757812 237.6875 374.324219 L 184.539062 404.828125 C 182.550781 405.972656 181.34375 408.175781 181.34375 410.460938 L 181.34375 471.683594 C 181.34375 472.242188 181.414062 472.792969 181.558594 473.335938 C 181.703125 473.875 181.914062 474.390625 182.195312 474.875 C 182.476562 475.359375 182.816406 475.800781 183.214844 476.195312 C 183.609375 476.589844 184.050781 476.929688 184.539062 477.207031 L 237.6875 507.820312 C 238.171875 508.101562 238.683594 508.3125 239.226562 508.457031 C 239.769531 508.605469 240.320312 508.675781 240.882812 508.675781 C 241.441406 508.675781 241.992188 508.605469 242.535156 508.457031 C 243.078125 508.3125 243.589844 508.101562 244.078125 507.820312 L 297.222656 477.207031 C 297.710938 476.929688 298.152344 476.589844 298.550781 476.195312 C 298.945312 475.796875 299.285156 475.359375 299.566406 474.871094 C 299.847656 474.386719 300.058594 473.875 300.203125 473.332031 C 300.347656 472.792969 300.421875 472.242188 300.417969 471.679688 L 300.417969 410.464844 C 300.417969 408.175781 299.210938 405.976562 297.222656 404.832031 L 244.074219 374.328125 C 243.085938 373.757812 242.019531 373.472656 240.878906 373.476562 Z M 558.703125 428.105469 C 558.492188 428.105469 558.257812 428.105469 558.0625 428.210938 L 547.839844 434.164062 C 547.421875 434.394531 547.207031 434.75 547.199219 435.226562 L 547.199219 446.917969 C 547.199219 447.359375 547.457031 447.757812 547.839844 447.980469 L 558.0625 453.828125 C 558.453125 454.066406 558.84375 454.066406 559.234375 453.828125 L 569.457031 447.980469 C 569.835938 447.765625 570.097656 447.359375 570.097656 446.917969 L 570.097656 435.226562 C 570.097656 434.785156 569.839844 434.382812 569.457031 434.160156 L 559.234375 428.207031 C 559.042969 428.097656 558.914062 428.105469 558.699219 428.105469 Z M 558.703125 428.105469 "/></g></svg>