<svg xmlns="http://www.w3.org/2000/svg" xmlns:xlink="http://www.w3.org/1999/xlink" width="1080" zoomAndPan="magnify" viewBox="0 0 810 809.999993" height="1080" preserveAspectRatio="xMidYMid meet" version="1.2"><defs><clipPath id="71684bd2b9"><path d="M 12.007812 37 L 798 37 L 798 719 L 12.007812 719 Z M 12.007812 37 "/></clipPath></defs><g id="1e685795ff"><path style=" stroke:none;fill-rule:nonzero;fill:#38b6ff;fill-opacity:1;" d="M 475.183594 377.242188 C 475.183594 339.664062 443.761719 309.195312 404.996094 309.195312 C 366.238281 309.195312 334.8125 339.664062 334.8125 377.242188 C 334.8125 414.828125 366.238281 445.296875 404.996094 445.296875 C 443.761719 445.296875 475.183594 414.828125 475.183594 377.242188 Z M 475.183594 377.242188 "/><g clip-rule="nonzero" clip-path="url(#71684bd2b9)"><path style=" stroke:none;fill-rule:evenodd;fill:#38b6ff;fill-opacity:1;" d="M 632.941406 250.90625 C 647.761719 192.511719 666.390625 84.222656 600.714844 47.507812 C 535.347656 10.953125 450.28125 80.996094 405.363281 123.039062 C 360.574219 81.417969 273.117188 11.671875 207.5 48.503906 C 142.152344 85.179688 162.304688 191.671875 177.453125 250.433594 C 116.5 267.21875 12.007812 303.375 12.007812 377.242188 C 12.007812 450.902344 116.390625 490.238281 176.984375 507.007812 C 161.777344 566.097656 142.636719 671.066406 208.066406 707.664062 C 273.929688 744.484375 361.113281 676.402344 406.449219 633.898438 C 451.65625 676.191406 535.90625 744.71875 601.289062 708.023438 C 666.875 671.210938 649.792969 564.371094 634.640625 505.269531 C 693.378906 488.460938 797.984375 449.984375 797.984375 377.242188 C 797.984375 304.085938 692.933594 267.636719 632.941406 250.90625 Z M 625.496094 473.949219 C 615.546875 443.414062 602.121094 410.945312 585.695312 377.40625 C 601.375 344.65625 614.28125 312.609375 623.949219 282.273438 C 667.929688 294.636719 764.410156 322.890625 764.410156 377.242188 C 764.410156 432.109375 671.824219 460.632812 625.496094 473.949219 Z M 584.460938 679.847656 C 535.679688 707.226562 463.214844 641.691406 429.828125 610.546875 C 451.976562 587.058594 474.109375 559.753906 495.710938 529.433594 C 533.710938 526.167969 569.605469 520.824219 602.164062 513.527344 C 612.824219 555.332031 633.460938 652.347656 584.460938 679.847656 Z M 224.839844 679.457031 C 176.054688 652.179688 198.351562 558.507812 209.539062 514.984375 C 241.734375 521.890625 277.371094 526.855469 315.460938 529.851562 C 337.203125 559.519531 359.976562 586.789062 382.925781 610.671875 C 354.570312 637.269531 273.855469 706.859375 224.839844 679.457031 Z M 45.582031 377.242188 C 45.582031 322.175781 141.488281 294.125 186.472656 281.792969 C 196.308594 312.808594 209.210938 345.242188 224.777344 378.039062 C 209.007812 411.320312 195.921875 444.265625 185.996094 475.652344 C 143.101562 463.746094 45.582031 432.347656 45.582031 377.242188 Z M 224.320312 76.675781 C 273.308594 49.183594 349.316406 116.140625 381.835938 146.277344 C 359.003906 170.050781 336.4375 197.117188 314.878906 226.613281 C 277.914062 229.9375 242.53125 235.269531 210 242.417969 C 197.792969 195.023438 175.386719 104.140625 224.320312 76.675781 Z M 519.730469 262 C 544.808594 265.066406 568.835938 269.148438 591.398438 274.140625 C 584.625 295.191406 576.183594 317.199219 566.242188 339.761719 C 551.828125 313.25 536.359375 287.269531 519.730469 262 Z M 405.371094 169.542969 C 420.859375 185.808594 436.367188 203.972656 451.625 223.679688 C 420.679688 222.261719 389.679688 222.253906 358.730469 223.660156 C 374 204.132812 389.644531 185.996094 405.371094 169.542969 Z M 244.042969 339.738281 C 234.265625 317.253906 225.898438 295.148438 219.066406 273.800781 C 241.492188 268.933594 265.40625 264.957031 290.324219 261.9375 C 273.648438 287.152344 258.207031 313.125 244.042969 339.738281 Z M 291.039062 494.875 C 265.300781 492.089844 241.023438 488.3125 218.605469 483.582031 C 225.542969 461.855469 234.09375 439.273438 244.082031 416.304688 C 258.4375 443.199219 274.121094 469.421875 291.039062 494.875 Z M 406.300781 587.246094 C 390.390625 570.597656 374.515625 552.179688 359.011719 532.375 C 390.136719 533.558594 421.324219 533.5625 452.445312 532.214844 C 437.140625 552.382812 421.683594 570.824219 406.300781 587.246094 Z M 566.558594 415.136719 C 577.066406 438.355469 585.921875 460.8125 592.957031 482.171875 C 570.164062 487.214844 545.5625 491.277344 519.636719 494.292969 C 536.386719 468.542969 552.105469 442.15625 566.558594 415.136719 Z M 476.976562 498.238281 C 429.367188 501.535156 381.460938 501.5 333.835938 498.507812 C 306.773438 460.179688 282.683594 419.871094 261.890625 378.027344 C 282.585938 336.269531 306.5 296.039062 333.433594 257.773438 C 381.089844 254.28125 429.042969 254.269531 476.703125 257.792969 C 503.40625 296.058594 527.28125 336.183594 548.457031 377.5625 C 527.535156 419.300781 503.492188 459.613281 476.976562 498.238281 Z M 583.945312 75.710938 C 632.945312 103.113281 611.136719 200.433594 600.429688 242.753906 C 567.824219 235.460938 532.414062 230.03125 495.339844 226.65625 C 473.742188 196.839844 451.363281 169.726562 428.902344 146.261719 C 461.835938 115.476562 535.417969 48.574219 583.945312 75.710938 Z M 583.945312 75.710938 "/></g></g></svg>